Ripper ...........: IMAGiNE IMDB Rating.......:7.7/10
Video Codec.......: XVID Release Date......:17/11/10
Audio Codec.......:MP3 Theatre Date......:01/10/10
Audio Bitrate.....:128 Runtime.......:1h 31mn
Subtitles.........:NIL Language..........:ENGLISH
Resolution...... 720 x 304 IMDb URL..........:
http://www.imdb.com/title/tt1462758/


DETAILS:

Video
ID : 0
Format : MPEG-4 Visual
Format profile : Advanced Simple@L5
Format settings, BVOP : Yes
Format settings, QPel : No
Format settings, GMC : No warppoints
Format settings, Matrix : Default (H.263)
Muxing mode : Packed bitstream
Codec ID : XVID
Codec ID/Hint : XviD
Duration : 1h 31mn
Bit rate : 2 186 Kbps
Width : 720 pixels
Height : 304 pixels
Display aspect ratio : 2.35
Frame rate : 25.000 fps
Resolution : 24 bits
Colorimetry : 4:2:0
Scan type : Progressive
Bits/(Pixel*Frame) : 0.400
Stream size : 1.39 GiB (94%)
Writing library : XviD 1.1.2 (UTC 2006-11-01)

Audio
ID : 1
Format : MPEG Audio
Format version : Version 1
Format profile : Layer 3
Codec ID : 55
Codec ID/Hint : MP3
Duration : 1h 31mn
Bit rate mode : Constant
Bit rate : 128 Kbps
Channel(s) : 2 channels
Sampling rate : 44.1 KHz
Resolution : 16 bits
Stream size : 83.5 MiB (6%)
Alignment : Split accross interleaves
Interleave, duration : 40 ms (1.00 video frame)
Interleave, preload duration : 500 ms


SOURCES:

VIDEO:Russian DVD9 .................. Thanks
AUDIO:OWN CAM

NOTES:

IMAGiNE bringing you another release..........Buried 2010

Here we have a r5 of buried......but sorry only cam audio
Right the video was pretty good but was such a dark film ,we needed to add some more brightness but we never
messed too much with it ......just a +2.Also the colours were slightly off so we changed them and also used a white
balance command in our script aswell.
The audio now this wasn't that good at all.....too loud so it distored,lots of noise and the balance of bass,mid,treble was all
over the place.......................so
we dropped it in adobe audition and used a hiss and noise removal filters and also totaly changed the EQ.


Screenshots:
 
http://www.postimg.com/image/25000/24395.jpg 
http://www.postimg.com/image/25000/24396.jpg 
http://www.postimg.com/image/25000/24398.jpg


ENJOY!